<?xml version="1.0" encoding="UTF-8" standalone="no"?>
<!DOCTYPE svg PUBLIC "-//W3C//DTD SVG 1.1//EN"
 "http://www.w3.org/Graphics/SVG/1.1/DTD/svg11.dtd">
<!-- Generated by graphviz version 2.40.1 (20161225.0304)
 -->
<!-- Title: CONSORT Pages: 1 -->
<svg width="427pt" height="786pt"
 viewBox="0.00 0.00 427.39 786.40" xmlns="http://www.w3.org/2000/svg" xmlns:xlink="http://www.w3.org/1999/xlink">
<g id="graph0" class="graph" transform="scale(1 1) rotate(0) translate(4 782.4)">
<title>CONSORT</title>
<polygon fill="#ffffff" stroke="transparent" points="-4,4 -4,-782.4 423.386,-782.4 423.386,4 -4,4"/>
<text text-anchor="middle" x="209.693" y="-763.6" font-family="Arial" font-size="12.00" fill="#000000">Figure 1. Sample selection flow (NHANES 2017&#45;March 2020 Pre&#45;pandemic)</text>
<!-- Raw_merged_table__J___P__ -->
<g id="node1" class="node">
<title>Raw_merged_table__J___P__</title>
<path fill="#e8f4fa" stroke="#000000" d="M265.3791,-756C265.3791,-756 154.0069,-756 154.0069,-756 148.0069,-756 142.0069,-750 142.0069,-744 142.0069,-744 142.0069,-732 142.0069,-732 142.0069,-726 148.0069,-720 154.0069,-720 154.0069,-720 265.3791,-720 265.3791,-720 271.3791,-720 277.3791,-726 277.3791,-732 277.3791,-732 277.3791,-744 277.3791,-744 277.3791,-750 271.3791,-756 265.3791,-756"/>
<text text-anchor="middle" x="209.693" y="-741" font-family="Arial" font-size="10.00" fill="#000000">Raw merged table (J + P_)</text>
<text text-anchor="middle" x="209.693" y="-729" font-family="Arial" font-size="10.00" fill="#000000">N = 24,814</text>
</g>
<!-- Pre_pandemic_cohort_only__J_subset_of_P___dedupe_ -->
<g id="node2" class="node">
<title>Pre_pandemic_cohort_only__J_subset_of_P___dedupe_</title>
<path fill="#e8f4fa" stroke="#000000" d="M318.3103,-684C318.3103,-684 101.0757,-684 101.0757,-684 95.0757,-684 89.0757,-678 89.0757,-672 89.0757,-672 89.0757,-660 89.0757,-660 89.0757,-654 95.0757,-648 101.0757,-648 101.0757,-648 318.3103,-648 318.3103,-648 324.3103,-648 330.3103,-654 330.3103,-660 330.3103,-660 330.3103,-672 330.3103,-672 330.3103,-678 324.3103,-684 318.3103,-684"/>
<text text-anchor="middle" x="209.693" y="-669" font-family="Arial" font-size="10.00" fill="#000000">Pre&#45;pandemic cohort only (J subset of P_, dedupe)</text>
<text text-anchor="middle" x="209.693" y="-657" font-family="Arial" font-size="10.00" fill="#000000">N = 15,560</text>
</g>
<!-- Raw_merged_table__J___P__&#45;&gt;Pre_pandemic_cohort_only__J_subset_of_P___dedupe_ -->
<g id="edge1" class="edge">
<title>Raw_merged_table__J___P__&#45;&gt;Pre_pandemic_cohort_only__J_subset_of_P___dedupe_</title>
<path fill="none" stroke="#000000" d="M209.693,-719.8314C209.693,-719.8314 209.693,-694.4133 209.693,-694.4133"/>
<polygon fill="#000000" stroke="#000000" points="213.1931,-694.4132 209.693,-684.4133 206.1931,-694.4133 213.1931,-694.4132"/>
</g>
<!-- Age____20 -->
<g id="node3" class="node">
<title>Age____20</title>
<path fill="#e8f4fa" stroke="#000000" d="M228.8342,-612C228.8342,-612 190.5518,-612 190.5518,-612 184.5518,-612 178.5518,-606 178.5518,-600 178.5518,-600 178.5518,-588 178.5518,-588 178.5518,-582 184.5518,-576 190.5518,-576 190.5518,-576 228.8342,-576 228.8342,-576 234.8342,-576 240.8342,-582 240.8342,-588 240.8342,-588 240.8342,-600 240.8342,-600 240.8342,-606 234.8342,-612 228.8342,-612"/>
<text text-anchor="middle" x="209.693" y="-597" font-family="Arial" font-size="10.00" fill="#000000">Age &gt;= 20</text>
<text text-anchor="middle" x="209.693" y="-585" font-family="Arial" font-size="10.00" fill="#000000">N = 9,232</text>
</g>
<!-- Pre_pandemic_cohort_only__J_subset_of_P___dedupe_&#45;&gt;Age____20 -->
<g id="edge2" class="edge">
<title>Pre_pandemic_cohort_only__J_subset_of_P___dedupe_&#45;&gt;Age____20</title>
<path fill="none" stroke="#000000" d="M209.693,-647.8314C209.693,-647.8314 209.693,-622.4133 209.693,-622.4133"/>
<polygon fill="#000000" stroke="#000000" points="213.1931,-622.4132 209.693,-612.4133 206.1931,-622.4133 213.1931,-622.4132"/>
</g>
<!-- __not_pregnant__excl_RIDEXPRG__1_only_ -->
<g id="node4" class="node">
<title>__not_pregnant__excl_RIDEXPRG__1_only_</title>
<path fill="#e8f4fa" stroke="#000000" d="M298.5183,-540C298.5183,-540 120.8677,-540 120.8677,-540 114.8677,-540 108.8677,-534 108.8677,-528 108.8677,-528 108.8677,-516 108.8677,-516 108.8677,-510 114.8677,-504 120.8677,-504 120.8677,-504 298.5183,-504 298.5183,-504 304.5183,-504 310.5183,-510 310.5183,-516 310.5183,-516 310.5183,-528 310.5183,-528 310.5183,-534 304.5183,-540 298.5183,-540"/>
<text text-anchor="middle" x="209.693" y="-525" font-family="Arial" font-size="10.00" fill="#000000">+ not pregnant (excl RIDEXPRG==1 only)</text>
<text text-anchor="middle" x="209.693" y="-513" font-family="Arial" font-size="10.00" fill="#000000">N = 9,145</text>
</g>
<!-- Age____20&#45;&gt;__not_pregnant__excl_RIDEXPRG__1_only_ -->
<g id="edge3" class="edge">
<title>Age____20&#45;&gt;__not_pregnant__excl_RIDEXPRG__1_only_</title>
<path fill="none" stroke="#000000" d="M209.693,-575.8314C209.693,-575.8314 209.693,-550.4133 209.693,-550.4133"/>
<polygon fill="#000000" stroke="#000000" points="213.1931,-550.4132 209.693,-540.4133 206.1931,-550.4133 213.1931,-550.4132"/>
</g>
<!-- __LUX_valid__LUXSMED___LUXCAPM_non_NA_ -->
<g id="node5" class="node">
<title>__LUX_valid__LUXSMED___LUXCAPM_non_NA_</title>
<path fill="#e8f4fa" stroke="#000000" d="M308.2664,-468C308.2664,-468 111.1196,-468 111.1196,-468 105.1196,-468 99.1196,-462 99.1196,-456 99.1196,-456 99.1196,-444 99.1196,-444 99.1196,-438 105.1196,-432 111.1196,-432 111.1196,-432 308.2664,-432 308.2664,-432 314.2664,-432 320.2664,-438 320.2664,-444 320.2664,-444 320.2664,-456 320.2664,-456 320.2664,-462 314.2664,-468 308.2664,-468"/>
<text text-anchor="middle" x="209.693" y="-453" font-family="Arial" font-size="10.00" fill="#000000">+ LUX valid (LUXSMED + LUXCAPM non&#45;NA)</text>
<text text-anchor="middle" x="209.693" y="-441" font-family="Arial" font-size="10.00" fill="#000000">N = 7,922</text>
</g>
<!-- __not_pregnant__excl_RIDEXPRG__1_only_&#45;&gt;__LUX_valid__LUXSMED___LUXCAPM_non_NA_ -->
<g id="edge4" class="edge">
<title>__not_pregnant__excl_RIDEXPRG__1_only_&#45;&gt;__LUX_valid__LUXSMED___LUXCAPM_non_NA_</title>
<path fill="none" stroke="#000000" d="M209.693,-503.8314C209.693,-503.8314 209.693,-478.4133 209.693,-478.4133"/>
<polygon fill="#000000" stroke="#000000" points="213.1931,-478.4132 209.693,-468.4133 206.1931,-478.4133 213.1931,-478.4132"/>
</g>
<!-- __LBXBSE__blood_Se____DR1TSELE__dietary_Se_ -->
<g id="node6" class="node">
<title>__LBXBSE__blood_Se____DR1TSELE__dietary_Se_</title>
<path fill="#e8f4fa" stroke="#000000" d="M312.631,-396C312.631,-396 106.755,-396 106.755,-396 100.755,-396 94.755,-390 94.755,-384 94.755,-384 94.755,-372 94.755,-372 94.755,-366 100.755,-360 106.755,-360 106.755,-360 312.631,-360 312.631,-360 318.631,-360 324.631,-366 324.631,-372 324.631,-372 324.631,-384 324.631,-384 324.631,-390 318.631,-396 312.631,-396"/>
<text text-anchor="middle" x="209.693" y="-381" font-family="Arial" font-size="10.00" fill="#000000">+ LBXBSE (blood Se) + DR1TSELE (dietary Se)</text>
<text text-anchor="middle" x="209.693" y="-369" font-family="Arial" font-size="10.00" fill="#000000">N = 6,969</text>
</g>
<!-- __LUX_valid__LUXSMED___LUXCAPM_non_NA_&#45;&gt;__LBXBSE__blood_Se____DR1TSELE__dietary_Se_ -->
<g id="edge5" class="edge">
<title>__LUX_valid__LUXSMED___LUXCAPM_non_NA_&#45;&gt;__LBXBSE__blood_Se____DR1TSELE__dietary_Se_</title>
<path fill="none" stroke="#000000" d="M209.693,-431.8314C209.693,-431.8314 209.693,-406.4133 209.693,-406.4133"/>
<polygon fill="#000000" stroke="#000000" points="213.1931,-406.4132 209.693,-396.4133 206.1931,-406.4133 213.1931,-406.4132"/>
</g>
<!-- __BIOPRO__AST_ALT_Alb____CBC_PLT -->
<g id="node7" class="node">
<title>__BIOPRO__AST_ALT_Alb____CBC_PLT</title>
<path fill="#e8f4fa" stroke="#000000" d="M290.0513,-324C290.0513,-324 129.3347,-324 129.3347,-324 123.3347,-324 117.3347,-318 117.3347,-312 117.3347,-312 117.3347,-300 117.3347,-300 117.3347,-294 123.3347,-288 129.3347,-288 129.3347,-288 290.0513,-288 290.0513,-288 296.0513,-288 302.0513,-294 302.0513,-300 302.0513,-300 302.0513,-312 302.0513,-312 302.0513,-318 296.0513,-324 290.0513,-324"/>
<text text-anchor="middle" x="209.693" y="-309" font-family="Arial" font-size="10.00" fill="#000000">+ BIOPRO (AST/ALT/Alb) + CBC PLT</text>
<text text-anchor="middle" x="209.693" y="-297" font-family="Arial" font-size="10.00" fill="#000000">N = 6,747</text>
</g>
<!-- __LBXBSE__blood_Se____DR1TSELE__dietary_Se_&#45;&gt;__BIOPRO__AST_ALT_Alb____CBC_PLT -->
<g id="edge6" class="edge">
<title>__LBXBSE__blood_Se____DR1TSELE__dietary_Se_&#45;&gt;__BIOPRO__AST_ALT_Alb____CBC_PLT</title>
<path fill="none" stroke="#000000" d="M209.693,-359.8314C209.693,-359.8314 209.693,-334.4133 209.693,-334.4133"/>
<polygon fill="#000000" stroke="#000000" points="213.1931,-334.4132 209.693,-324.4133 206.1931,-334.4133 213.1931,-334.4132"/>
</g>
<!-- Core_covariate_complete__main_analytic_cohort__862_excluded_ -->
<g id="node8" class="node">
<title>Core_covariate_complete__main_analytic_cohort__862_excluded_</title>
<path fill="#e8f4fa" stroke="#000000" d="M341.9611,-252C341.9611,-252 77.4249,-252 77.4249,-252 71.4249,-252 65.4249,-246 65.4249,-240 65.4249,-240 65.4249,-228 65.4249,-228 65.4249,-222 71.4249,-216 77.4249,-216 77.4249,-216 341.9611,-216 341.9611,-216 347.9611,-216 353.9611,-222 353.9611,-228 353.9611,-228 353.9611,-240 353.9611,-240 353.9611,-246 347.9611,-252 341.9611,-252"/>
<text text-anchor="middle" x="209.693" y="-237" font-family="Arial" font-size="10.00" fill="#000000">Core covariate&#45;complete (main analytic cohort; 862 excluded)</text>
<text text-anchor="middle" x="209.693" y="-225" font-family="Arial" font-size="10.00" fill="#000000">N = 5,885</text>
</g>
<!-- __BIOPRO__AST_ALT_Alb____CBC_PLT&#45;&gt;Core_covariate_complete__main_analytic_cohort__862_excluded_ -->
<g id="edge7" class="edge">
<title>__BIOPRO__AST_ALT_Alb____CBC_PLT&#45;&gt;Core_covariate_complete__main_analytic_cohort__862_excluded_</title>
<path fill="none" stroke="#000000" d="M209.693,-287.8314C209.693,-287.8314 209.693,-262.4133 209.693,-262.4133"/>
<polygon fill="#000000" stroke="#000000" points="213.1931,-262.4132 209.693,-252.4133 206.1931,-262.4133 213.1931,-262.4132"/>
</g>
<!-- HFS_eligible__fasting_insulin_glucose__within_5_885_ -->
<g id="node9" class="node">
<title>HFS_eligible__fasting_insulin_glucose__within_5_885_</title>
<path fill="#e8f4fa" stroke="#000000" d="M317.3353,-180C317.3353,-180 102.0507,-180 102.0507,-180 96.0507,-180 90.0507,-174 90.0507,-168 90.0507,-168 90.0507,-156 90.0507,-156 90.0507,-150 96.0507,-144 102.0507,-144 102.0507,-144 317.3353,-144 317.3353,-144 323.3353,-144 329.3353,-150 329.3353,-156 329.3353,-156 329.3353,-168 329.3353,-168 329.3353,-174 323.3353,-180 317.3353,-180"/>
<text text-anchor="middle" x="209.693" y="-165" font-family="Arial" font-size="10.00" fill="#000000">HFS&#45;eligible (fasting insulin+glucose, within 5,885)</text>
<text text-anchor="middle" x="209.693" y="-153" font-family="Arial" font-size="10.00" fill="#000000">N = 2,908</text>
</g>
<!-- Core_covariate_complete__main_analytic_cohort__862_excluded_&#45;&gt;HFS_eligible__fasting_insulin_glucose__within_5_885_ -->
<g id="edge8" class="edge">
<title>Core_covariate_complete__main_analytic_cohort__862_excluded_&#45;&gt;HFS_eligible__fasting_insulin_glucose__within_5_885_</title>
<path fill="none" stroke="#000000" d="M209.693,-215.8314C209.693,-215.8314 209.693,-190.4133 209.693,-190.4133"/>
<polygon fill="#000000" stroke="#000000" points="213.1931,-190.4132 209.693,-180.4133 206.1931,-190.4133 213.1931,-190.4132"/>
</g>
<!-- HFS_AUROC_analytic_subset__HFS___FIB_4___WTSAFPRP_0_ -->
<g id="node10" class="node">
<title>HFS_AUROC_analytic_subset__HFS___FIB_4___WTSAFPRP_0_</title>
<path fill="#e8f4fa" stroke="#000000" d="M341.6053,-108C341.6053,-108 77.7807,-108 77.7807,-108 71.7807,-108 65.7807,-102 65.7807,-96 65.7807,-96 65.7807,-84 65.7807,-84 65.7807,-78 71.7807,-72 77.7807,-72 77.7807,-72 341.6053,-72 341.6053,-72 347.6053,-72 353.6053,-78 353.6053,-84 353.6053,-84 353.6053,-96 353.6053,-96 353.6053,-102 347.6053,-108 341.6053,-108"/>
<text text-anchor="middle" x="209.693" y="-93" font-family="Arial" font-size="10.00" fill="#000000">HFS AUROC analytic subset (HFS + FIB&#45;4 + WTSAFPRP&gt;0)</text>
<text text-anchor="middle" x="209.693" y="-81" font-family="Arial" font-size="10.00" fill="#000000">N = 2,810</text>
</g>
<!-- HFS_eligible__fasting_insulin_glucose__within_5_885_&#45;&gt;HFS_AUROC_analytic_subset__HFS___FIB_4___WTSAFPRP_0_ -->
<g id="edge9" class="edge">
<title>HFS_eligible__fasting_insulin_glucose__within_5_885_&#45;&gt;HFS_AUROC_analytic_subset__HFS___FIB_4___WTSAFPRP_0_</title>
<path fill="none" stroke="#000000" d="M209.693,-143.8314C209.693,-143.8314 209.693,-118.4133 209.693,-118.4133"/>
<polygon fill="#000000" stroke="#000000" points="213.1931,-118.4132 209.693,-108.4133 206.1931,-118.4133 213.1931,-118.4132"/>
</g>
<!-- HFS____0_47_high_risk_cell__within_AUROC_subset_ -->
<g id="node11" class="node">
<title>HFS____0_47_high_risk_cell__within_AUROC_subset_</title>
<path fill="#e8f4fa" stroke="#000000" d="M316.32,-36C316.32,-36 103.066,-36 103.066,-36 97.066,-36 91.066,-30 91.066,-24 91.066,-24 91.066,-12 91.066,-12 91.066,-6 97.066,0 103.066,0 103.066,0 316.32,0 316.32,0 322.32,0 328.32,-6 328.32,-12 328.32,-12 328.32,-24 328.32,-24 328.32,-30 322.32,-36 316.32,-36"/>
<text text-anchor="middle" x="209.693" y="-21" font-family="Arial" font-size="10.00" fill="#000000">HFS &gt;= 0.47 high&#45;risk cell (within AUROC subset)</text>
<text text-anchor="middle" x="209.693" y="-9" font-family="Arial" font-size="10.00" fill="#000000">N = 5</text>
</g>
<!-- HFS_AUROC_analytic_subset__HFS___FIB_4___WTSAFPRP_0_&#45;&gt;HFS____0_47_high_risk_cell__within_AUROC_subset_ -->
<g id="edge10" class="edge">
<title>HFS_AUROC_analytic_subset__HFS___FIB_4___WTSAFPRP_0_&#45;&gt;HFS____0_47_high_risk_cell__within_AUROC_subset_</title>
<path fill="none" stroke="#000000" d="M209.693,-71.8314C209.693,-71.8314 209.693,-46.4133 209.693,-46.4133"/>
<polygon fill="#000000" stroke="#000000" points="213.1931,-46.4132 209.693,-36.4133 206.1931,-46.4133 213.1931,-46.4132"/>
</g>
</g>
</svg>

